<svg width="109" height="105" viewBox="0 0 109 105" fill="none" xmlns="http://www.w3.org/2000/svg">
<g filter="url(#filter0_d_255_837)">
<path d="M97.7487 49.9697L105 58.2588L71.1779 97L53.2051 76.4242L60.4564 68.1352L71.1779 80.363L97.7487 49.9697ZM45.4359 0C50.9306 0 56.2003 2.47748 60.0857 6.88743C63.9711 11.2974 66.1538 17.2785 66.1538 23.5152C66.1538 29.7518 63.9711 35.7329 60.0857 40.1429C56.2003 44.5528 50.9306 47.0303 45.4359 47.0303C39.9412 47.0303 34.6715 44.5528 30.7861 40.1429C26.9007 35.7329 24.7179 29.7518 24.7179 23.5152C24.7179 17.2785 26.9007 11.2974 30.7861 6.88743C34.6715 2.47748 39.9412 0 45.4359 0ZM45.4359 11.7576C42.6885 11.7576 40.0537 12.9963 38.111 15.2013C36.1683 17.4063 35.0769 20.3968 35.0769 23.5152C35.0769 26.6335 36.1683 29.624 38.111 31.829C40.0537 34.034 42.6885 35.2727 45.4359 35.2727C48.1833 35.2727 50.8181 34.034 52.7608 31.829C54.7035 29.624 55.7949 26.6335 55.7949 23.5152C55.7949 20.3968 54.7035 17.4063 52.7608 15.2013C50.8181 12.9963 48.1833 11.7576 45.4359 11.7576ZM45.4359 52.9091C48.958 52.9091 53.2051 53.4382 57.9185 54.4376L49.2687 64.2552L45.4359 64.0788C30.0528 64.0788 13.841 72.6618 13.841 76.4242V82.8909H45.9538L55.7949 94.0606H4V76.4242C4 60.7867 31.6067 52.9091 45.4359 52.9091Z" fill="#FFA000"/>
</g>
<defs>
<filter id="filter0_d_255_837" x="0" y="0" width="109" height="105" filterUnits="userSpaceOnUse" color-interpolation-filters="sRGB">
<feFlood flood-opacity="0" result="BackgroundImageFix"/>
<feColorMatrix in="SourceAlpha" type="matrix" values="0 0 0 0 0 0 0 0 0 0 0 0 0 0 0 0 0 0 127 0" result="hardAlpha"/>
<feOffset dy="4"/>
<feGaussianBlur stdDeviation="2"/>
<feComposite in2="hardAlpha" operator="out"/>
<feColorMatrix type="matrix" values="0 0 0 0 0 0 0 0 0 0 0 0 0 0 0 0 0 0 0.25 0"/>
<feBlend mode="normal" in2="BackgroundImageFix" result="effect1_dropShadow_255_837"/>
<feBlend mode="normal" in="SourceGraphic" in2="effect1_dropShadow_255_837" result="shape"/>
</filter>
</defs>
</svg>
