<svg width="86" height="112" viewBox="0 0 86 112" fill="none" xmlns="http://www.w3.org/2000/svg">
<g filter="url(#filter0_d_255_830)">
<path d="M60.875 47.125C59.5821 47.125 58.3421 46.6114 57.4279 45.6971C56.5136 44.7829 56 43.5429 56 42.25C56 40.9571 56.5136 39.7171 57.4279 38.8029C58.3421 37.8886 59.5821 37.375 60.875 37.375C62.1679 37.375 63.4079 37.8886 64.3221 38.8029C65.2364 39.7171 65.75 40.9571 65.75 42.25C65.75 43.5429 65.2364 44.7829 64.3221 45.6971C63.4079 46.6114 62.1679 47.125 60.875 47.125ZM60.875 66.625C59.5821 66.625 58.3421 66.1114 57.4279 65.1971C56.5136 64.2829 56 63.0429 56 61.75C56 60.4571 56.5136 59.2171 57.4279 58.3029C58.3421 57.3886 59.5821 56.875 60.875 56.875C62.1679 56.875 63.4079 57.3886 64.3221 58.3029C65.2364 59.2171 65.75 60.4571 65.75 61.75C65.75 63.0429 65.2364 64.2829 64.3221 65.1971C63.4079 66.1114 62.1679 66.625 60.875 66.625ZM56 81.25C56 82.5429 56.5136 83.7829 57.4279 84.6971C58.3421 85.6114 59.5821 86.125 60.875 86.125C62.1679 86.125 63.4079 85.6114 64.3221 84.6971C65.2364 83.7829 65.75 82.5429 65.75 81.25C65.75 79.9571 65.2364 78.7171 64.3221 77.8029C63.4079 76.8886 62.1679 76.375 60.875 76.375C59.5821 76.375 58.3421 76.8886 57.4279 77.8029C56.5136 78.7171 56 79.9571 56 81.25ZM49.5 42.25C49.5 41.388 49.1576 40.5614 48.5481 39.9519C47.9386 39.3424 47.112 39 46.25 39H23.5C22.638 39 21.8114 39.3424 21.2019 39.9519C20.5924 40.5614 20.25 41.388 20.25 42.25C20.25 43.112 20.5924 43.9386 21.2019 44.5481C21.8114 45.1576 22.638 45.5 23.5 45.5H46.25C47.112 45.5 47.9386 45.1576 48.5481 44.5481C49.1576 43.9386 49.5 43.112 49.5 42.25ZM49.5 61.75C49.5 60.888 49.1576 60.0614 48.5481 59.4519C47.9386 58.8424 47.112 58.5 46.25 58.5H23.5C22.638 58.5 21.8114 58.8424 21.2019 59.4519C20.5924 60.0614 20.25 60.888 20.25 61.75C20.25 62.612 20.5924 63.4386 21.2019 64.0481C21.8114 64.6576 22.638 65 23.5 65H46.25C47.112 65 47.9386 64.6576 48.5481 64.0481C49.1576 63.4386 49.5 62.612 49.5 61.75ZM49.5 81.25C49.5 80.388 49.1576 79.5614 48.5481 78.9519C47.9386 78.3424 47.112 78 46.25 78H23.5C22.638 78 21.8114 78.3424 21.2019 78.9519C20.5924 79.5614 20.25 80.388 20.25 81.25C20.25 82.112 20.5924 82.9386 21.2019 83.5481C21.8114 84.1576 22.638 84.5 23.5 84.5H46.25C47.112 84.5 47.9386 84.1576 48.5481 83.5481C49.1576 82.9386 49.5 82.112 49.5 81.25ZM33.25 1.34054e-06C31.2329 -0.00105612 29.2651 0.623531 27.6178 1.78768C25.9705 2.95184 24.7249 4.59824 24.0525 6.5H13.75C11.1641 6.5 8.68419 7.52723 6.85571 9.35571C5.02723 11.1842 4 13.6641 4 16.25V94.25C4 96.8359 5.02723 99.3158 6.85571 101.144C8.68419 102.973 11.1641 104 13.75 104H72.25C74.8359 104 77.3158 102.973 79.1443 101.144C80.9728 99.3158 82 96.8359 82 94.25V16.25C82 13.6641 80.9728 11.1842 79.1443 9.35571C77.3158 7.52723 74.8359 6.5 72.25 6.5H61.9475C61.2751 4.59824 60.0295 2.95184 58.3822 1.78768C56.7349 0.623531 54.7671 -0.00105612 52.75 1.34054e-06H33.25ZM30 9.75C30 8.88805 30.3424 8.0614 30.9519 7.45191C31.5614 6.84241 32.388 6.5 33.25 6.5H52.75C53.612 6.5 54.4386 6.84241 55.0481 7.45191C55.6576 8.0614 56 8.88805 56 9.75C56 10.612 55.6576 11.4386 55.0481 12.0481C54.4386 12.6576 53.612 13 52.75 13H33.25C32.388 13 31.5614 12.6576 30.9519 12.0481C30.3424 11.4386 30 10.612 30 9.75ZM13.75 13H24.0525C24.7249 14.9018 25.9705 16.5482 27.6178 17.7123C29.2651 18.8765 31.2329 19.5011 33.25 19.5H52.75C54.7671 19.5011 56.7349 18.8765 58.3822 17.7123C60.0295 16.5482 61.2751 14.9018 61.9475 13H72.25C73.112 13 73.9386 13.3424 74.5481 13.9519C75.1576 14.5614 75.5 15.388 75.5 16.25V94.25C75.5 95.112 75.1576 95.9386 74.5481 96.5481C73.9386 97.1576 73.112 97.5 72.25 97.5H13.75C12.888 97.5 12.0614 97.1576 11.4519 96.5481C10.8424 95.9386 10.5 95.112 10.5 94.25V16.25C10.5 15.388 10.8424 14.5614 11.4519 13.9519C12.0614 13.3424 12.888 13 13.75 13Z" fill="#FFA000"/>
</g>
<defs>
<filter id="filter0_d_255_830" x="0" y="0" width="86" height="112" filterUnits="userSpaceOnUse" color-interpolation-filters="sRGB">
<feFlood flood-opacity="0" result="BackgroundImageFix"/>
<feColorMatrix in="SourceAlpha" type="matrix" values="0 0 0 0 0 0 0 0 0 0 0 0 0 0 0 0 0 0 127 0" result="hardAlpha"/>
<feOffset dy="4"/>
<feGaussianBlur stdDeviation="2"/>
<feComposite in2="hardAlpha" operator="out"/>
<feColorMatrix type="matrix" values="0 0 0 0 0 0 0 0 0 0 0 0 0 0 0 0 0 0 0.25 0"/>
<feBlend mode="normal" in2="BackgroundImageFix" result="effect1_dropShadow_255_830"/>
<feBlend mode="normal" in="SourceGraphic" in2="effect1_dropShadow_255_830" result="shape"/>
</filter>
</defs>
</svg>
