<?xml version="1.0" standalone="no"?>
<!DOCTYPE svg PUBLIC "-//W3C//DTD SVG 20010904//EN"
 "http://www.w3.org/TR/2001/REC-SVG-20010904/DTD/svg10.dtd">
<svg version="1.0" xmlns="http://www.w3.org/2000/svg"
 width="100.000000pt" height="100.000000pt" viewBox="0 0 100.000000 100.000000"
 preserveAspectRatio="xMidYMid meet">
<metadata>
Created by potrace 1.14, written by Peter Selinger 2001-2017
</metadata>
<g transform="translate(0.000000,100.000000) scale(0.100000,-0.100000)"
fill="#000000" stroke="none">
<path d="M103 840 c-18 -16 -23 -17 -33 -5 -16 19 -30 10 -23 -14 3 -11 -5
-29 -22 -45 -25 -25 -27 -31 -21 -88 13 -115 63 -264 105 -309 11 -12 32 -23
46 -24 47 -6 57 64 30 220 -15 86 -57 195 -76 195 -17 0 -9 19 11 25 11 4 27
20 35 36 15 28 15 29 -8 29 -13 0 -33 -9 -44 -20z"/>
<path d="M165 751 c3 -20 17 -97 30 -171 14 -74 28 -153 31 -175 6 -42 17 -54
43 -50 18 2 20 29 8 105 -5 32 -1 24 14 -28 l21 -73 42 6 c72 10 76 13 76 53
1 30 3 34 11 19 5 -9 8 -21 4 -26 -11 -19 14 -20 66 -2 l54 18 -1 66 c0 64 4
79 11 40 2 -10 4 -37 4 -60 1 -41 2 -42 31 -40 16 1 30 7 31 12 0 6 2 17 3 25
2 8 6 58 10 110 4 52 9 120 12 151 l6 55 -39 0 -38 0 2 -91 1 -90 -9 80 c-12
101 -12 103 -43 103 -15 0 -30 -6 -34 -12 -4 -6 -5 -90 -4 -186 4 -183 -2
-220 -12 -85 -12 153 -17 210 -21 230 -2 11 -4 27 -4 36 -1 13 -12 16 -53 15
l-53 -2 2 -189 1 -190 -17 60 c-10 37 -22 61 -31 61 -8 1 -19 2 -24 3 -5 0 3
10 17 21 46 37 40 155 -12 204 -22 21 -39 27 -85 30 l-57 3 6 -36z m268 -173
c4 -43 3 -78 -1 -78 -4 0 -9 37 -11 82 -3 103 5 100 12 -4z m-155 29 c2 -15
-1 -27 -7 -27 -6 0 -11 3 -11 8 0 4 -3 18 -7 31 -4 18 -2 23 8 19 8 -2 15 -17
17 -31z m289 -29 c-3 -7 -5 -2 -5 12 0 14 2 19 5 13 2 -7 2 -19 0 -25z"/>
<path d="M732 783 c-49 -19 -84 -215 -57 -320 8 -35 43 -29 60 10 14 31 14 31
15 6 0 -20 6 -28 24 -31 22 -4 25 -1 32 41 9 58 11 69 19 98 5 21 2 23 -35 23
-37 0 -41 -2 -38 -22 2 -11 -3 -23 -9 -25 -17 -6 -17 56 -2 91 13 28 29 26 29
-4 0 -15 6 -18 27 -14 15 3 30 7 34 9 6 4 6 50 0 102 -3 33 -57 53 -99 36z"/>
<path d="M875 780 c-3 -5 -65 -321 -65 -331 0 -3 15 -6 33 -7 17 -1 39 -5 48
-7 13 -4 20 8 33 53 20 73 20 72 -4 72 -11 0 -20 7 -20 15 0 8 9 15 19 15 10
0 22 7 25 16 9 23 8 24 -15 24 -30 0 -18 24 16 30 30 5 40 26 47 93 l3 32 -58
0 c-33 0 -60 -2 -62 -5z"/>
<path d="M731 346 c-6 -33 -13 -74 -16 -91 -11 -67 -15 -91 -19 -110 -4 -19 1
-21 57 -20 l61 0 18 48 18 47 -30 0 c-20 0 -30 5 -30 15 0 11 7 14 26 11 20
-4 24 -1 22 12 -2 9 -11 16 -21 16 -9 -1 -17 4 -17 12 0 9 12 14 34 14 31 0
34 3 44 42 6 23 9 45 7 48 -2 3 -21 7 -42 9 -21 1 -52 4 -70 5 -31 3 -31 3
-42 -58z"/>
<path d="M585 389 c-87 -43 -96 -235 -12 -264 49 -17 110 34 123 104 l7 33
-39 -6 c-21 -3 -40 -5 -40 -6 -1 0 -4 -9 -7 -21 -3 -12 -10 -18 -16 -14 -17
10 -13 71 5 85 13 11 16 10 21 -9 5 -19 11 -22 36 -17 16 3 33 6 38 6 17 0 9
68 -12 94 -22 28 -65 34 -104 15z"/>
<path d="M470 356 c-42 -15 -46 -32 -42 -151 l3 -84 31 1 c16 1 31 6 33 12 4
14 16 236 13 235 -2 0 -19 -6 -38 -13z"/>
<path d="M365 331 l-30 -6 3 -75 c3 -92 -17 -85 -25 9 l-6 62 -41 -3 c-23 -2
-40 -7 -40 -13 1 -5 5 -31 8 -58 4 -26 11 -58 16 -71 21 -55 102 -75 140 -34
20 21 22 31 22 103 0 75 -2 95 -9 94 -5 -1 -21 -4 -38 -8z"/>
<path d="M124 313 c21 -71 28 -117 19 -120 -13 -5 -4 -55 11 -65 18 -12 63 -9
74 5 7 8 5 39 -6 97 -8 47 -16 86 -17 87 -1 2 -21 5 -44 8 -37 5 -42 3 -37
-12z"/>
</g>
</svg>
